<svg width="170" height="170" viewBox="0 0 170 170" fill="none" xmlns="http://www.w3.org/2000/svg">
<path d="M84.9474 134.963C112.57 134.963 134.963 112.57 134.963 84.9474C134.963 57.3244 112.57 34.9316 84.9474 34.9316C57.3244 34.9316 34.9316 57.3244 34.9316 84.9474C34.9316 112.57 57.3244 134.963 84.9474 134.963Z" stroke="#FFFCF2" stroke-width="11.5421" stroke-linecap="round" stroke-linejoin="round"/>
<path d="M139.888 139.888L138.887 138.887M138.887 31.0072L139.888 30.0069L138.887 31.0072ZM30.0069 139.888L31.0072 138.887L30.0069 139.888ZM84.9473 8.61558V8V8.61558ZM84.9473 161.895V161.279V161.895ZM8.61558 84.9473H8H8.61558ZM161.895 84.9473H161.279H161.895ZM31.0072 31.0072L30.0069 30.0069L31.0072 31.0072Z" stroke="#FFFCF2" stroke-width="15.3895" stroke-linecap="round" stroke-linejoin="round"/>
</svg>
